<?xml version="1.0" encoding="UTF-8" standalone="no"?>
<!-- Created with Inkscape (http://www.inkscape.org/) -->

<svg
   xmlns:osb="http://www.openswatchbook.org/uri/2009/osb"
   xmlns:dc="http://purl.org/dc/elements/1.1/"
   xmlns:cc="http://creativecommons.org/ns#"
   xmlns:rdf="http://www.w3.org/1999/02/22-rdf-syntax-ns#"
   xmlns:svg="http://www.w3.org/2000/svg"
   xmlns="http://www.w3.org/2000/svg"
   xmlns:xlink="http://www.w3.org/1999/xlink"
   xmlns:sodipodi="http://sodipodi.sourceforge.net/DTD/sodipodi-0.dtd"
   xmlns:inkscape="http://www.inkscape.org/namespaces/inkscape"
   width="1024"
   height="1024"
   viewBox="0 0 1024 1024"
   id="svg2"
   version="1.1"
   inkscape:version="0.91 r13725"
   sodipodi:docname="android-l-icon-grid-template.svg"
   inkscape:export-filename="/home/thomas/git/timetrackr/static/icons/launcher/launcher_icon_2048.png"
   inkscape:export-xdpi="180"
   inkscape:export-ydpi="180">
  <title
     id="title4146">Icon-1024x1024-Template</title>
  <defs
     id="defs4">
    <linearGradient
       id="linearGradient4323"
       inkscape:collect="always">
      <stop
         id="stop4325"
         offset="0"
         style="stop-color:#000000;stop-opacity:0.8" />
      <stop
         id="stop4327"
         offset="1"
         style="stop-color:#000000;stop-opacity:0.055" />
    </linearGradient>
    <linearGradient
       id="linearGradient5598"
       osb:paint="solid">
      <stop
         style="stop-color:#000000;stop-opacity:1;"
         offset="0"
         id="stop5600" />
    </linearGradient>
    <clipPath
       id="clipPath16">
      <path
         id="path18"
         inkscape:connector-curvature="0"
         d="M 0,192 192,192 192,0 0,0 0,192 z" />
    </clipPath>
    <clipPath
       id="clipPath24">
      <path
         id="path26"
         inkscape:connector-curvature="0"
         d="m 67.75,124.25 56.5,0 0,-56.5 -56.5,0 0,56.5 z" />
    </clipPath>
    <clipPath
       id="clipPath40">
      <path
         id="path42"
         inkscape:connector-curvature="0"
         d="m -0.176773,192.177 192.353773,0 0,-192.353773 -192.353773,0 0,192.353773 z" />
    </clipPath>
    <clipPath
       id="clipPath56">
      <path
         id="path58"
         inkscape:connector-curvature="0"
         d="m -0.176773,192.177 192.353773,0 0,-192.353773 -192.353773,0 0,192.353773 z" />
    </clipPath>
    <clipPath
       id="clipPath72">
      <path
         id="path74"
         inkscape:connector-curvature="0"
         d="m 95.75,192 0.5,0 0,-192 -0.5,0 0,192 z" />
    </clipPath>
    <clipPath
       id="clipPath88">
      <path
         id="path90"
         inkscape:connector-curvature="0"
         d="m 0,96.25 192,0 0,-0.5 -192,0 0,0.5 z" />
    </clipPath>
    <clipPath
       id="clipPath104">
      <path
         id="path106"
         inkscape:connector-curvature="0"
         d="m 0,124.25 192,0 0,-0.5 -192,0 0,0.5 z" />
    </clipPath>
    <clipPath
       id="clipPath120">
      <path
         id="path122"
         inkscape:connector-curvature="0"
         d="m 0,68.25 192,0 0,-0.5 -192,0 0,0.5 z" />
    </clipPath>
    <clipPath
       id="clipPath136">
      <path
         id="path138"
         inkscape:connector-curvature="0"
         d="m 123.755,192 0.5,0 0,-192 -0.5,0 0,192 z" />
    </clipPath>
    <clipPath
       id="clipPath152">
      <path
         id="path154"
         inkscape:connector-curvature="0"
         d="m 67.75,192 0.5,0 0,-192 -0.5,0 0,192 z" />
    </clipPath>
    <clipPath
       id="clipPath168">
      <path
         id="path170"
         inkscape:connector-curvature="0"
         d="M 0,192 192,192 192,0 0,0 0,192 z" />
    </clipPath>
    <clipPath
       id="clipPath196">
      <path
         id="path198"
         inkscape:connector-curvature="0"
         d="M 0,192 192,192 192,0 0,0 0,192 z" />
    </clipPath>
    <clipPath
       id="clipPath224">
      <path
         id="path226"
         inkscape:connector-curvature="0"
         d="M 0,192 192,192 192,0 0,0 0,192 z" />
    </clipPath>
    <clipPath
       id="clipPath252">
      <path
         id="path254"
         inkscape:connector-curvature="0"
         d="M 0,192 192,192 192,0 0,0 0,192 z" />
    </clipPath>
    <clipPath
       id="clipPath16-8">
      <path
         id="path18-1"
         inkscape:connector-curvature="0"
         d="M 0,192 192,192 192,0 0,0 0,192 Z" />
    </clipPath>
    <clipPath
       id="clipPath24-2">
      <path
         id="path26-9"
         inkscape:connector-curvature="0"
         d="m 67.75,124.25 56.5,0 0,-56.5 -56.5,0 0,56.5 z" />
    </clipPath>
    <clipPath
       id="clipPath40-4">
      <path
         id="path42-0"
         inkscape:connector-curvature="0"
         d="m -0.176773,192.177 192.353773,0 0,-192.353773 -192.353773,0 0,192.353773 z" />
    </clipPath>
    <clipPath
       id="clipPath56-7">
      <path
         id="path58-0"
         inkscape:connector-curvature="0"
         d="m -0.176773,192.177 192.353773,0 0,-192.353773 -192.353773,0 0,192.353773 z" />
    </clipPath>
    <clipPath
       id="clipPath72-4">
      <path
         id="path74-0"
         inkscape:connector-curvature="0"
         d="m 95.75,192 0.5,0 0,-192 -0.5,0 0,192 z" />
    </clipPath>
    <clipPath
       id="clipPath88-7">
      <path
         id="path90-0"
         inkscape:connector-curvature="0"
         d="m 0,96.25 192,0 0,-0.5 -192,0 0,0.5 z" />
    </clipPath>
    <clipPath
       id="clipPath104-4">
      <path
         id="path106-7"
         inkscape:connector-curvature="0"
         d="m 0,124.25 192,0 0,-0.5 -192,0 0,0.5 z" />
    </clipPath>
    <clipPath
       id="clipPath120-9">
      <path
         id="path122-6"
         inkscape:connector-curvature="0"
         d="m 0,68.25 192,0 0,-0.5 -192,0 0,0.5 z" />
    </clipPath>
    <clipPath
       id="clipPath136-8">
      <path
         id="path138-6"
         inkscape:connector-curvature="0"
         d="m 123.755,192 0.5,0 0,-192 -0.5,0 0,192 z" />
    </clipPath>
    <clipPath
       id="clipPath152-8">
      <path
         id="path154-5"
         inkscape:connector-curvature="0"
         d="m 67.75,192 0.5,0 0,-192 -0.5,0 0,192 z" />
    </clipPath>
    <clipPath
       id="clipPath168-3">
      <path
         id="path170-7"
         inkscape:connector-curvature="0"
         d="M 0,192 192,192 192,0 0,0 0,192 Z" />
    </clipPath>
    <clipPath
       id="clipPath196-4">
      <path
         id="path198-4"
         inkscape:connector-curvature="0"
         d="M 0,192 192,192 192,0 0,0 0,192 Z" />
    </clipPath>
    <clipPath
       id="clipPath224-0">
      <path
         id="path226-1"
         inkscape:connector-curvature="0"
         d="M 0,192 192,192 192,0 0,0 0,192 Z" />
    </clipPath>
    <clipPath
       id="clipPath252-6">
      <path
         id="path254-7"
         inkscape:connector-curvature="0"
         d="M 0,192 192,192 192,0 0,0 0,192 Z" />
    </clipPath>
    <linearGradient
       gradientTransform="matrix(1.580599,0,0,1.580599,105.87285,-771.07879)"
       inkscape:collect="always"
       xlink:href="#linearGradient7256"
       id="linearGradient7262"
       x1="557.60419"
       y1="1148.3267"
       x2="561.64484"
       y2="1148.3267"
       gradientUnits="userSpaceOnUse" />
    <linearGradient
       inkscape:collect="always"
       id="linearGradient7256">
      <stop
         style="stop-color:#ffffff;stop-opacity:1;"
         offset="0"
         id="stop7258" />
      <stop
         style="stop-color:#ffffff;stop-opacity:0;"
         offset="1"
         id="stop7260" />
    </linearGradient>
    <linearGradient
       inkscape:collect="always"
       xlink:href="#linearGradient4323"
       id="linearGradient4319"
       x1="-96"
       y1="320"
       x2="-1.580196"
       y2="313.81323"
       gradientUnits="userSpaceOnUse"
       gradientTransform="matrix(1.4475565,0,0,1.4343046,841.44131,-650.77976)" />
    <filter
       style="color-interpolation-filters:sRGB;"
       inkscape:label="Drop Shadow"
       id="filter4731">
      <feFlood
         flood-opacity="0.341176"
         flood-color="rgb(0,0,0)"
         result="flood"
         id="feFlood4733" />
      <feComposite
         in="flood"
         in2="SourceGraphic"
         operator="in"
         result="composite1"
         id="feComposite4735" />
      <feGaussianBlur
         in="composite1"
         stdDeviation="20"
         result="blur"
         id="feGaussianBlur4737" />
      <feOffset
         dx="15"
         dy="15"
         result="offset"
         id="feOffset4739" />
      <feComposite
         in="SourceGraphic"
         in2="offset"
         operator="over"
         result="composite2"
         id="feComposite4741" />
      <feBlend
         mode="normal"
         id="feBlend5387"
         in2="composite2" />
    </filter>
    <filter
       style="color-interpolation-filters:sRGB;"
       inkscape:label="Drop Shadow"
       id="filter4767">
      <feFlood
         flood-opacity="0.341176"
         flood-color="rgb(0,0,0)"
         result="flood"
         id="feFlood4769" />
      <feComposite
         in="flood"
         in2="SourceGraphic"
         operator="in"
         result="composite1"
         id="feComposite4771" />
      <feGaussianBlur
         in="composite1"
         stdDeviation="20"
         result="blur"
         id="feGaussianBlur4773" />
      <feOffset
         dx="10"
         dy="10"
         result="offset"
         id="feOffset4775" />
      <feComposite
         in="SourceGraphic"
         in2="offset"
         operator="over"
         result="composite2"
         id="feComposite4777" />
    </filter>
    <filter
       style="color-interpolation-filters:sRGB;"
       inkscape:label="Drop Shadow"
       id="filter4997">
      <feFlood
         flood-opacity="0.407843"
         flood-color="rgb(0,0,0)"
         result="flood"
         id="feFlood4999" />
      <feComposite
         in="flood"
         in2="SourceGraphic"
         operator="in"
         result="composite1"
         id="feComposite5001" />
      <feGaussianBlur
         in="composite1"
         stdDeviation="20"
         result="blur"
         id="feGaussianBlur5003" />
      <feOffset
         dx="5"
         dy="15"
         result="offset"
         id="feOffset5005" />
      <feComposite
         in="SourceGraphic"
         in2="offset"
         operator="over"
         result="composite2"
         id="feComposite5007" />
    </filter>
    <filter
       style="color-interpolation-filters:sRGB;"
       inkscape:label="Drop Shadow"
       id="filter5359">
      <feFlood
         flood-opacity="0.407843"
         flood-color="rgb(0,0,0)"
         result="flood"
         id="feFlood5361" />
      <feComposite
         in="flood"
         in2="SourceGraphic"
         operator="in"
         result="composite1"
         id="feComposite5363" />
      <feGaussianBlur
         in="composite1"
         stdDeviation="10"
         result="blur"
         id="feGaussianBlur5365" />
      <feOffset
         dx="5"
         dy="5"
         result="offset"
         id="feOffset5367" />
      <feComposite
         in="SourceGraphic"
         in2="offset"
         operator="over"
         result="fbSourceGraphic"
         id="feComposite5369" />
      <feColorMatrix
         result="fbSourceGraphicAlpha"
         in="fbSourceGraphic"
         values="0 0 0 -1 0 0 0 0 -1 0 0 0 0 -1 0 0 0 0 1 0"
         id="feColorMatrix5371" />
      <feFlood
         id="feFlood5373"
         flood-opacity="0.407843"
         flood-color="rgb(0,0,0)"
         result="flood"
         in="fbSourceGraphic" />
      <feComposite
         id="feComposite5375"
         in2="fbSourceGraphic"
         in="flood"
         operator="in"
         result="composite1" />
      <feGaussianBlur
         id="feGaussianBlur5377"
         in="composite1"
         stdDeviation="10"
         result="blur" />
      <feOffset
         id="feOffset5379"
         dx="5"
         dy="5"
         result="offset" />
      <feComposite
         id="feComposite5381"
         in2="offset"
         in="fbSourceGraphic"
         operator="over"
         result="composite2" />
    </filter>
    <filter
       style="color-interpolation-filters:sRGB"
       id="filter5383"
       inkscape:label="Filter5" />
    <filter
       style="color-interpolation-filters:sRGB"
       id="filter5385"
       inkscape:label="Filter6" />
    <filter
       style="color-interpolation-filters:sRGB;"
       inkscape:label="Drop Shadow"
       id="filter5473">
      <feFlood
         flood-opacity="0.584314"
         flood-color="rgb(0,0,0)"
         result="flood"
         id="feFlood5475" />
      <feComposite
         in="flood"
         in2="SourceGraphic"
         operator="in"
         result="composite1"
         id="feComposite5477" />
      <feGaussianBlur
         in="composite1"
         stdDeviation="5"
         result="blur"
         id="feGaussianBlur5479" />
      <feOffset
         dx="5"
         dy="5"
         result="offset"
         id="feOffset5481" />
      <feComposite
         in="SourceGraphic"
         in2="offset"
         operator="over"
         result="composite2"
         id="feComposite5483" />
    </filter>
  </defs>
  <sodipodi:namedview
     id="base"
     pagecolor="#ffffff"
     bordercolor="#666666"
     borderopacity="1.0"
     inkscape:pageopacity="0.0"
     inkscape:pageshadow="2"
     inkscape:zoom="0.70710678"
     inkscape:cx="302.40473"
     inkscape:cy="479.57292"
     inkscape:document-units="px"
     inkscape:current-layer="layer3"
     showgrid="true"
     showborder="false"
     units="px"
     inkscape:window-width="1920"
     inkscape:window-height="1031"
     inkscape:window-x="1920"
     inkscape:window-y="25"
     inkscape:window-maximized="1"
     showguides="true"
     inkscape:guide-bbox="true"
     inkscape:snap-to-guides="true"
     inkscape:snap-grids="true">
    <inkscape:grid
       type="xygrid"
       id="grid4136"
       dotted="false"
       empspacing="4" />
    <sodipodi:guide
       position="0,0"
       orientation="0,1024"
       id="guide4138" />
    <sodipodi:guide
       position="1024,0"
       orientation="-1024,0"
       id="guide4140" />
    <sodipodi:guide
       position="1024,1024"
       orientation="0,-1024"
       id="guide4142" />
    <sodipodi:guide
       position="0,1024"
       orientation="1024,0"
       id="guide4144" />
    <sodipodi:guide
       position="-160,512"
       orientation="0,1"
       id="guide6395"
       inkscape:label="Center-Y"
       inkscape:color="rgb(0,0,255)" />
    <sodipodi:guide
       position="512,1184"
       orientation="1,0"
       id="guide6397"
       inkscape:label="Center-X"
       inkscape:color="rgb(0,0,255)" />
    <sodipodi:guide
       position="-160,662"
       orientation="0,1"
       id="guide6399"
       inkscape:label="Internal-Top"
       inkscape:color="rgb(0,0,255)" />
    <sodipodi:guide
       position="-160,362"
       orientation="0,1"
       id="guide6401"
       inkscape:label="Internal-Bottom"
       inkscape:color="rgb(0,0,255)" />
    <sodipodi:guide
       position="662,1184"
       orientation="1,0"
       id="guide6403"
       inkscape:label="Internal-Right"
       inkscape:color="rgb(0,0,255)" />
    <sodipodi:guide
       position="362,1184"
       orientation="1,0"
       id="guide6405"
       inkscape:label="Internal-Left"
       inkscape:color="rgb(0,0,255)" />
    <sodipodi:guide
       position="-160,-160"
       orientation="-0.70710678,0.70710678"
       id="guide6526"
       inkscape:label="Diagonal-45"
       inkscape:color="rgb(0,0,255)" />
    <sodipodi:guide
       position="-128,1152"
       orientation="0.70710678,0.70710678"
       id="guide6528"
       inkscape:label="Diagonal"
       inkscape:color="rgb(0,0,255)" />
  </sodipodi:namedview>
  <metadata
     id="metadata7">
    <rdf:RDF>
      <cc:Work
         rdf:about="">
        <dc:format>image/svg+xml</dc:format>
        <dc:type
           rdf:resource="http://purl.org/dc/dcmitype/StillImage" />
        <dc:title>Icon-1024x1024-Template</dc:title>
      </cc:Work>
    </rdf:RDF>
  </metadata>
  <g
     inkscape:label="Background"
     inkscape:groupmode="layer"
     id="layer1"
     transform="translate(0,-28.362183)"
     style="display:none"
     sodipodi:insensitive="true" />
  <g
     inkscape:groupmode="layer"
     id="layer7"
     inkscape:label="Grid - Circles"
     style="display:none"
     sodipodi:insensitive="true">
    <g
       style="display:inline;opacity:0.45"
       id="g248"
       transform="matrix(5.3378385,0,0,-5.3379284,-1.2527419,1025.5118)">
      <g
         clip-path="url(#clipPath252-6)"
         id="g250">
        <g
           transform="translate(184,96)"
           id="g256">
          <path
             d="m 0,0 c 0,-48.601 -39.399,-88 -88,-88 -48.601,0 -88,39.399 -88,88 0,48.601 39.399,88 88,88 C -39.399,88 0,48.601 0,0 Z"
             inkscape:connector-curvature="0"
             id="path258"
             style="fill:none;stroke:#373535;stroke-width:0.5;stroke-linecap:butt;stroke-linejoin:miter;stroke-miterlimit:10;stroke-dasharray:none;stroke-opacity:1" />
        </g>
      </g>
    </g>
    <g
       style="display:inline;opacity:1"
       id="g20"
       transform="matrix(5.3378385,0,0,-5.3379284,-1.2527419,1025.5118)">
      <g
         id="g22" />
      <g
         id="g28">
        <g
           clip-path="url(#clipPath24-2)"
           id="g30"
           style="opacity:0.19999701"
           transform="matrix(0.99473499,0,0,0.99471817,0.65910637,0.70763496)">
          <g
             transform="translate(124,96)"
             id="g32">
            <path
               d="m 0,0 c 0,-15.464 -12.536,-28 -28,-28 -15.464,0 -28,12.536 -28,28 0,15.464 12.536,28 28,28 C -12.536,28 0,15.464 0,0 Z"
               inkscape:connector-curvature="0"
               id="path34"
               style="fill:none;stroke:#373535;stroke-width:0.5;stroke-linecap:butt;stroke-linejoin:miter;stroke-miterlimit:10;stroke-dasharray:none;stroke-opacity:1" />
          </g>
        </g>
      </g>
    </g>
  </g>
  <g
     inkscape:groupmode="layer"
     id="layer6"
     inkscape:label="Grid - Rectangle"
     style="display:none"
     sodipodi:insensitive="true">
    <g
       style="display:inline;opacity:0.45"
       id="g220"
       transform="matrix(5.3378385,0,0,-5.3379284,-1.2527419,1025.5118)">
      <g
         clip-path="url(#clipPath224-0)"
         id="g222">
        <g
           transform="translate(160,20)"
           id="g228">
          <path
             d="m 0,0 -128,0 c -6.627,0 -12,5.373 -12,12 l 0,128 c 0,6.627 5.373,12 12,12 l 128,0 c 6.627,0 12,-5.373 12,-12 L 12,12 C 12,5.373 6.627,0 0,0 Z"
             inkscape:connector-curvature="0"
             id="path230"
             style="fill:none;stroke:#373535;stroke-width:0.5;stroke-linecap:butt;stroke-linejoin:miter;stroke-miterlimit:10;stroke-dasharray:none;stroke-opacity:1" />
        </g>
        <g
           transform="translate(172,160)"
           id="g232">
          <path
             d="m 0,0 c 0,-6.627 -5.373,-12 -12,-12 -6.627,0 -12,5.373 -12,12 0,6.627 5.373,12 12,12 C -5.373,12 0,6.627 0,0 Z"
             inkscape:connector-curvature="0"
             id="path234"
             style="fill:none;stroke:#3bade2;stroke-width:0.5;stroke-linecap:butt;stroke-linejoin:miter;stroke-miterlimit:10;stroke-dasharray:none;stroke-opacity:1" />
        </g>
        <g
           transform="translate(44,160)"
           id="g236">
          <path
             d="m 0,0 c 0,-6.627 -5.373,-12 -12,-12 -6.627,0 -12,5.373 -12,12 0,6.627 5.373,12 12,12 C -5.373,12 0,6.627 0,0 Z"
             inkscape:connector-curvature="0"
             id="path238"
             style="fill:none;stroke:#3bade2;stroke-width:0.5;stroke-linecap:butt;stroke-linejoin:miter;stroke-miterlimit:10;stroke-dasharray:none;stroke-opacity:1" />
        </g>
        <g
           transform="translate(172,32)"
           id="g240">
          <path
             d="m 0,0 c 0,-6.627 -5.373,-12 -12,-12 -6.627,0 -12,5.373 -12,12 0,6.627 5.373,12 12,12 C -5.373,12 0,6.627 0,0 Z"
             inkscape:connector-curvature="0"
             id="path242"
             style="fill:none;stroke:#3bade2;stroke-width:0.5;stroke-linecap:butt;stroke-linejoin:miter;stroke-miterlimit:10;stroke-dasharray:none;stroke-opacity:1" />
        </g>
        <g
           transform="translate(44,32)"
           id="g244">
          <path
             d="m 0,0 c 0,-6.627 -5.373,-12 -12,-12 -6.627,0 -12,5.373 -12,12 0,6.627 5.373,12 12,12 C -5.373,12 0,6.627 0,0 Z"
             inkscape:connector-curvature="0"
             id="path246"
             style="fill:none;stroke:#3bade2;stroke-width:0.5;stroke-linecap:butt;stroke-linejoin:miter;stroke-miterlimit:10;stroke-dasharray:none;stroke-opacity:1" />
        </g>
      </g>
    </g>
  </g>
  <g
     inkscape:groupmode="layer"
     id="layer5"
     inkscape:label="Grid - Landscape"
     style="display:none"
     sodipodi:insensitive="true">
    <g
       style="display:inline;opacity:0.45"
       id="g192"
       transform="matrix(5.3378385,0,0,-5.3379284,-1.2527419,1025.5118)">
      <g
         clip-path="url(#clipPath196-4)"
         id="g194">
        <g
           transform="translate(172,32)"
           id="g200">
          <path
             d="m 0,0 -152,0 c -6.627,0 -12,5.373 -12,12 l 0,104 c 0,6.627 5.373,12 12,12 l 152,0 c 6.627,0 12,-5.373 12,-12 L 12,12 C 12,5.373 6.627,0 0,0 Z"
             inkscape:connector-curvature="0"
             id="path202"
             style="fill:none;stroke:#373535;stroke-width:0.5;stroke-linecap:butt;stroke-linejoin:miter;stroke-miterlimit:10;stroke-dasharray:none;stroke-opacity:1" />
        </g>
        <g
           transform="translate(172,32)"
           id="g204">
          <path
             d="m 0,0 c -6.627,0 -12,5.373 -12,12 0,6.627 5.373,12 12,12 C 6.627,24 12,18.627 12,12 12,5.373 6.627,0 0,0 Z"
             inkscape:connector-curvature="0"
             id="path206"
             style="fill:none;stroke:#3bade2;stroke-width:0.5;stroke-linecap:butt;stroke-linejoin:miter;stroke-miterlimit:10;stroke-dasharray:none;stroke-opacity:1" />
        </g>
        <g
           transform="translate(172,136)"
           id="g208">
          <path
             d="m 0,0 c -6.627,0 -12,5.373 -12,12 0,6.627 5.373,12 12,12 C 6.627,24 12,18.627 12,12 12,5.373 6.627,0 0,0 Z"
             inkscape:connector-curvature="0"
             id="path210"
             style="fill:none;stroke:#3bade2;stroke-width:0.5;stroke-linecap:butt;stroke-linejoin:miter;stroke-miterlimit:10;stroke-dasharray:none;stroke-opacity:1" />
        </g>
        <g
           transform="translate(20,32)"
           id="g212">
          <path
             d="m 0,0 c -6.627,0 -12,5.373 -12,12 0,6.627 5.373,12 12,12 C 6.627,24 12,18.627 12,12 12,5.373 6.627,0 0,0 Z"
             inkscape:connector-curvature="0"
             id="path214"
             style="fill:none;stroke:#3bade2;stroke-width:0.5;stroke-linecap:butt;stroke-linejoin:miter;stroke-miterlimit:10;stroke-dasharray:none;stroke-opacity:1" />
        </g>
        <g
           transform="translate(20,136)"
           id="g216">
          <path
             d="m 0,0 c -6.627,0 -12,5.373 -12,12 0,6.627 5.373,12 12,12 C 6.627,24 12,18.627 12,12 12,5.373 6.627,0 0,0 Z"
             inkscape:connector-curvature="0"
             id="path218"
             style="fill:none;stroke:#3bade2;stroke-width:0.5;stroke-linecap:butt;stroke-linejoin:miter;stroke-miterlimit:10;stroke-dasharray:none;stroke-opacity:1" />
        </g>
      </g>
    </g>
  </g>
  <g
     inkscape:groupmode="layer"
     id="layer4"
     inkscape:label="Grid - Portrait"
     style="display:none"
     sodipodi:insensitive="true">
    <g
       style="display:inline;opacity:0.45"
       id="g164"
       transform="matrix(5.3378385,0,0,-5.3379284,-1.2527419,1025.5118)">
      <g
         clip-path="url(#clipPath168-3)"
         id="g166">
        <g
           transform="translate(32,20)"
           id="g172">
          <path
             d="m 0,0 0,152 c 0,6.627 5.373,12 12,12 l 104,0 c 6.627,0 12,-5.373 12,-12 L 128,0 c 0,-6.627 -5.373,-12 -12,-12 L 12,-12 C 5.373,-12 0,-6.627 0,0 Z"
             inkscape:connector-curvature="0"
             id="path174"
             style="fill:none;stroke:#373535;stroke-width:0.5;stroke-linecap:butt;stroke-linejoin:miter;stroke-miterlimit:10;stroke-dasharray:none;stroke-opacity:1" />
        </g>
        <g
           transform="translate(160,172)"
           id="g176">
          <path
             d="m 0,0 c 0,-6.627 -5.373,-12 -12,-12 -6.627,0 -12,5.373 -12,12 0,6.627 5.373,12 12,12 C -5.373,12 0,6.627 0,0 Z"
             inkscape:connector-curvature="0"
             id="path178"
             style="fill:none;stroke:#3bade2;stroke-width:0.5;stroke-linecap:butt;stroke-linejoin:miter;stroke-miterlimit:10;stroke-dasharray:none;stroke-opacity:1" />
        </g>
        <g
           transform="translate(56,172)"
           id="g180">
          <path
             d="m 0,0 c 0,-6.627 -5.373,-12 -12,-12 -6.627,0 -12,5.373 -12,12 0,6.627 5.373,12 12,12 C -5.373,12 0,6.627 0,0 Z"
             inkscape:connector-curvature="0"
             id="path182"
             style="fill:none;stroke:#3bade2;stroke-width:0.5;stroke-linecap:butt;stroke-linejoin:miter;stroke-miterlimit:10;stroke-dasharray:none;stroke-opacity:1" />
        </g>
        <g
           transform="translate(160,20)"
           id="g184">
          <path
             d="m 0,0 c 0,-6.627 -5.373,-12 -12,-12 -6.627,0 -12,5.373 -12,12 0,6.627 5.373,12 12,12 C -5.373,12 0,6.627 0,0 Z"
             inkscape:connector-curvature="0"
             id="path186"
             style="fill:none;stroke:#3bade2;stroke-width:0.5;stroke-linecap:butt;stroke-linejoin:miter;stroke-miterlimit:10;stroke-dasharray:none;stroke-opacity:1" />
        </g>
        <g
           transform="translate(56,20)"
           id="g188">
          <path
             d="m 0,0 c 0,-6.627 -5.373,-12 -12,-12 -6.627,0 -12,5.373 -12,12 0,6.627 5.373,12 12,12 C -5.373,12 0,6.627 0,0 Z"
             inkscape:connector-curvature="0"
             id="path190"
             style="fill:none;stroke:#3bade2;stroke-width:0.5;stroke-linecap:butt;stroke-linejoin:miter;stroke-miterlimit:10;stroke-dasharray:none;stroke-opacity:1" />
        </g>
      </g>
    </g>
  </g>
  <g
     inkscape:groupmode="layer"
     id="layer3"
     inkscape:label="Icon"
     style="display:inline;opacity:1">
    <rect
       style="fill:#ff5722;fill-opacity:1;fill-rule:nonzero;stroke:none;stroke-width:0.09982084;stroke-miterlimit:4;stroke-dasharray:none;stroke-opacity:1;filter:url(#filter5473)"
       id="rect4159"
       width="866.89587"
       height="866.89587"
       x="79.002808"
       y="80.147133"
       rx="0"
       ry="56.755802" />
    <path
       style="opacity:0.4;fill:url(#linearGradient4319);fill-opacity:1;stroke:none;stroke-width:10;stroke-miterlimit:4;stroke-dasharray:none;stroke-opacity:1"
       d="m 702.59853,-314.53959 196.88891,-1.35297 67.91917,262.779215 -402.95432,1.131869 142.66816,-65.655264 z"
       id="rect4311"
       inkscape:connector-curvature="0"
       sodipodi:nodetypes="cccccc"
       transform="matrix(0.60551887,0.79583095,-0.81662233,0.57717239,0,0)" />
    <path
       inkscape:connector-curvature="0"
       id="path4161"
       d="M 793.99307,513.59511 A 281.54231,281.54231 0 0 1 512.4508,795.13737 281.54231,281.54231 0 0 1 230.90853,513.59511 281.54231,281.54231 0 0 1 512.4508,232.05284 281.54231,281.54231 0 0 1 793.99307,513.59511 Z"
       style="fill:none;fill-opacity:1;stroke:#ffffff;stroke-width:67.01229095;stroke-miterlimit:4;stroke-dasharray:none;stroke-opacity:1;filter:url(#filter4997)" />
    <path
       style="fill:none;fill-rule:evenodd;stroke:#ffffff;stroke-width:50;stroke-linecap:butt;stroke-linejoin:miter;stroke-miterlimit:4;stroke-dasharray:none;stroke-opacity:1"
       d="M 402.04416,401.51018 528.03357,527.57681"
       id="path4163"
       inkscape:connector-curvature="0" />
    <path
       inkscape:connector-curvature="0"
       id="rect4769"
       d="M 497.30956,514.04355 649.79962,362.63562 664.78458,377.72765 512.29451,529.13559 Z"
       style="fill:#ffffff;fill-opacity:1;stroke:#ffffff;stroke-width:25;stroke-miterlimit:4;stroke-dasharray:none;stroke-opacity:1" />
    <path
       style="fill:url(#linearGradient7262);fill-opacity:1;stroke:none;stroke-width:10;stroke-miterlimit:4;stroke-dasharray:none;stroke-opacity:1;filter:url(#filter4767)"
       d="m 351.54277,498.91992 171.04861,169.48682 c 13.92266,13.79551 12.44748,37.6751 -3.30759,53.54156 L 262.3722,980.6769 c -15.75501,15.8665 -39.64711,17.5336 -53.57012,3.739 L 37.753586,814.9294 C 23.830669,801.13409 25.306051,777.25437 41.061147,761.38774 L 297.97302,502.65801 c 15.75499,-15.86644 39.6471,-17.53362 53.56974,-3.738 z"
       id="rect5199"
       inkscape:connector-curvature="0" />
    <rect
       style="fill:#f1ca55;fill-opacity:1;stroke:none;stroke-width:1;stroke-miterlimit:4;stroke-dasharray:none;stroke-opacity:1"
       id="rect5201"
       width="90.045738"
       height="80.311073"
       x="-249.21268"
       y="633.8913"
       rx="13.628542"
       ry="13.628542"
       transform="matrix(0.70035911,-0.71379067,0.71379067,0.70035911,0,0)" />
  </g>
</svg>
